<svg xmlns="http://www.w3.org/2000/svg" viewBox="0 0 1000 620"><defs><linearGradient id="a" x1="0" y1="0" x2="1" y2="1"><stop stop-color="#5b21b6"/><stop offset=".55" stop-color="#1c1736"/><stop offset="1" stop-color="#0d0d10"/></linearGradient><radialGradient id="b"><stop stop-color="#c084fc" stop-opacity=".85"/><stop offset="1" stop-color="#7c3aed" stop-opacity="0"/></radialGradient></defs><rect width="1000" height="620" fill="url(#a)"/><circle cx="720" cy="270" r="320" fill="url(#b)"/><circle cx="720" cy="270" r="170" fill="none" stroke="#e9d5ff" stroke-opacity=".3" stroke-width="3"/><circle cx="720" cy="270" r="220" fill="none" stroke="#e9d5ff" stroke-opacity=".13" stroke-width="2"/><path d="M530 620C510 450 615 360 690 320c90-48 127-140 127-320h183v620Z" fill="#fff" opacity=".055"/><path d="M690 0c5 136 28 238 84 300 43 48 70 113 68 320H435c44-160 127-182 172-286C653 207 646 110 620 0Z" fill="#06060a" opacity=".38"/><path d="M82 525c120-75 236-78 355-10" fill="none" stroke="#fff" stroke-opacity=".17" stroke-width="2"/><circle cx="720" cy="270" r="13" fill="#fff" fill-opacity=".8"/><circle cx="720" cy="270" r="29" fill="none" stroke="#fff" stroke-opacity=".25" stroke-width="2"/></svg>